<?xml version="1.0" encoding="UTF-8"?>
<svg width="20px" height="20px" viewBox="0 0 20 20" version="1.1" xmlns="http://www.w3.org/2000/svg" xmlns:xlink="http://www.w3.org/1999/xlink">
    <!-- Generator: Sketch 54.1 (76490) - https://sketchapp.com -->
    <title>c-link@3x</title>
    <desc>Created with Sketch.</desc>
    <g id="FINAL" stroke="none" stroke-width="1" fill="none" fill-rule="evenodd">
        <g id="Preferred-including-Buy-With-Confidence" transform="translate(-683.000000, -138.000000)" fill="#A9AAA8" fill-rule="nonzero">
            <g id="c-link" transform="translate(683.000000, 138.000000)">
                <path d="M19.5223521,17.5366667 L12.5545352,10.555 C13.2690238,9.45043618 13.6483495,8.1616016 13.6464507,6.845 C13.6516193,5.02858009 12.9316311,3.285644 11.6470986,2.005 C10.3705728,0.717092855 8.63315858,-0.00492355294 6.82239437,1.48032899e-15 C5.01189967,-0.00479373103 3.27479146,0.717219842 1.99852113,2.005 C0.714842876,3.28615066 -0.00473965142,5.02882898 4.65258257e-16,6.845 C-0.00533238067,8.66153303 0.714323933,10.4046901 1.99852113,11.6858333 C3.27482331,12.9734653 5.01198314,13.6952002 6.82239437,13.69 C8.13476839,13.6927409 9.41959695,13.3125734 10.5202817,12.5958333 L17.4880986,19.5775 C17.759831,19.85 18.1213099,20 18.5052254,20 C18.8891408,20 19.2506197,19.85 19.5223521,19.5775 C19.7940845,19.305 19.943662,18.9425 19.943662,18.5566667 C19.943662,18.1708333 19.7940845,17.8083333 19.5223521,17.5366667 L19.5223521,17.5366667 Z M3.20926761,10.4683333 C2.24727035,9.50980634 1.70799999,8.2049389 1.71183099,6.845 C1.71183099,5.47583333 2.24366197,4.18916667 3.20926761,3.2225 C4.16500999,2.25755829 5.46618445,1.71647165 6.82239437,1.72 C8.18770423,1.72 9.47074648,2.25333333 10.4363521,3.2225 C11.3978392,4.18096131 11.9367862,5.48547024 11.9329577,6.845 C11.9329577,8.21416667 11.4011268,9.50083333 10.4363521,10.4683333 C9.48032251,11.433254 8.17879029,11.9740648 6.82239437,11.97 C5.46624959,11.9740281 4.16498905,11.4332058 3.20926761,10.4683333 L3.20926761,10.4683333 Z" id="c"></path>
            </g>
        </g>
    </g>
</svg>